<svg xmlns="http://www.w3.org/2000/svg" xmlns:xlink="http://www.w3.org/1999/xlink" contentStyleType="text/css" data-diagram-type="CLASS" height="561px" preserveAspectRatio="none" style="width:798px;height:561px;background:#FFFFFF;" version="1.1" viewBox="0 0 798 561" width="798px" zoomAndPan="magnify"><defs/><g><!--class SpacerLeft--><!--class SpacerRight--><!--class dim_customers--><g class="entity" data-entity="dim_customers" data-source-line="11" data-uid="ent0004" id="entity_dim_customers"><rect fill="#F1F1F1" height="210.9688" rx="2.5" ry="2.5" style="stroke:#181818;stroke-width:0.5;" width="193.3711" x="182" y="7"/><ellipse cx="221.6318" cy="23" fill="#ADD1B2" rx="11" ry="11" style="stroke:#181818;stroke-width:1;"/><path d="M224.6005,28.6406 Q224.0224,28.9375 223.3818,29.0781 Q222.7412,29.2344 222.038,29.2344 Q219.538,29.2344 218.2099,27.5938 Q216.8974,25.9375 216.8974,22.8125 Q216.8974,19.6875 218.2099,18.0313 Q219.538,16.375 222.038,16.375 Q222.7412,16.375 223.3818,16.5313 Q224.038,16.6875 224.6005,16.9844 L224.6005,19.7031 Q223.9755,19.125 223.3818,18.8594 Q222.788,18.5781 222.163,18.5781 Q220.8193,18.5781 220.1318,19.6563 Q219.4443,20.7188 219.4443,22.8125 Q219.4443,24.9063 220.1318,25.9844 Q220.8193,27.0469 222.163,27.0469 Q222.788,27.0469 223.3818,26.7813 Q223.9755,26.5 224.6005,25.9219 L224.6005,28.6406 Z " fill="#000000"/><text fill="#000000" font-family="sans-serif" font-size="14" lengthAdjust="spacing" textLength="106.6338" x="241.1055" y="27.8467">dim_customers</text><line style="stroke:#181818;stroke-width:0.5;" x1="183" x2="374.3711" y1="39" y2="39"/><text fill="#000000" font-family="sans-serif" font-size="14" lengthAdjust="spacing" textLength="129.8008" x="188" y="55.9951">customer_key : int</text><text fill="#000000" font-family="sans-serif" font-size="14" lengthAdjust="spacing" textLength="139.5078" x="188" y="72.292">customer_id : string</text><text fill="#000000" font-family="sans-serif" font-size="14" lengthAdjust="spacing" textLength="181.3711" x="188" y="88.5889">customer_number : string</text><text fill="#000000" font-family="sans-serif" font-size="14" lengthAdjust="spacing" textLength="127.8662" x="188" y="104.8857">first_name : string</text><text fill="#000000" font-family="sans-serif" font-size="14" lengthAdjust="spacing" textLength="125.7607" x="188" y="121.1826">last_name : string</text><text fill="#000000" font-family="sans-serif" font-size="14" lengthAdjust="spacing" textLength="109.6484" x="188" y="137.4795">birthdate : date</text><text fill="#000000" font-family="sans-serif" font-size="14" lengthAdjust="spacing" textLength="128.502" x="188" y="153.7764">create_date : date</text><text fill="#000000" font-family="sans-serif" font-size="14" lengthAdjust="spacing" textLength="107.3447" x="188" y="170.0732">country : string</text><text fill="#000000" font-family="sans-serif" font-size="14" lengthAdjust="spacing" textLength="153.6445" x="188" y="186.3701">marital_status : string</text><text fill="#000000" font-family="sans-serif" font-size="14" lengthAdjust="spacing" textLength="103.4346" x="188" y="202.667">gender : string</text><line style="stroke:#181818;stroke-width:0.5;" x1="183" x2="374.3711" y1="209.9688" y2="209.9688"/></g><!--class dim_products--><g class="entity" data-entity="dim_products" data-source-line="24" data-uid="ent0005" id="entity_dim_products"><rect fill="#F1F1F1" height="227.2656" rx="2.5" ry="2.5" style="stroke:#181818;stroke-width:0.5;" width="181.5996" x="188" y="260.5"/><ellipse cx="227.6318" cy="276.5" fill="#ADD1B2" rx="11" ry="11" style="stroke:#181818;stroke-width:1;"/><path d="M230.6005,282.1406 Q230.0224,282.4375 229.3818,282.5781 Q228.7412,282.7344 228.038,282.7344 Q225.538,282.7344 224.2099,281.0937 Q222.8974,279.4375 222.8974,276.3125 Q222.8974,273.1875 224.2099,271.5312 Q225.538,269.875 228.038,269.875 Q228.7412,269.875 229.3818,270.0312 Q230.038,270.1875 230.6005,270.4844 L230.6005,273.2031 Q229.9755,272.625 229.3818,272.3594 Q228.788,272.0781 228.163,272.0781 Q226.8193,272.0781 226.1318,273.1562 Q225.4443,274.2187 225.4443,276.3125 Q225.4443,278.4062 226.1318,279.4844 Q226.8193,280.5469 228.163,280.5469 Q228.788,280.5469 229.3818,280.2812 Q229.9755,280 230.6005,279.4219 L230.6005,282.1406 Z " fill="#000000"/><text fill="#000000" font-family="sans-serif" font-size="14" lengthAdjust="spacing" textLength="94.8623" x="247.1055" y="281.3467">dim_products</text><line style="stroke:#181818;stroke-width:0.5;" x1="189" x2="368.5996" y1="292.5" y2="292.5"/><text fill="#000000" font-family="sans-serif" font-size="14" lengthAdjust="spacing" textLength="118.0293" x="194" y="309.4951">product_key : int</text><text fill="#000000" font-family="sans-serif" font-size="14" lengthAdjust="spacing" textLength="127.7363" x="194" y="325.792">product_id : string</text><text fill="#000000" font-family="sans-serif" font-size="14" lengthAdjust="spacing" textLength="169.5996" x="194" y="342.0889">product_number : string</text><text fill="#000000" font-family="sans-serif" font-size="14" lengthAdjust="spacing" textLength="154.6631" x="194" y="358.3857">product_name : string</text><text fill="#000000" font-family="sans-serif" font-size="14" lengthAdjust="spacing" textLength="140.2256" x="194" y="374.6826">product_line : string</text><text fill="#000000" font-family="sans-serif" font-size="14" lengthAdjust="spacing" textLength="115.6777" x="194" y="390.9795">category : string</text><text fill="#000000" font-family="sans-serif" font-size="14" lengthAdjust="spacing" textLength="113.5176" x="194" y="407.2764">category_id : int</text><text fill="#000000" font-family="sans-serif" font-size="14" lengthAdjust="spacing" textLength="140.7314" x="194" y="423.5732">subcategory : string</text><text fill="#000000" font-family="sans-serif" font-size="14" lengthAdjust="spacing" textLength="161.3076" x="194" y="439.8701">maintenance : boolean</text><text fill="#000000" font-family="sans-serif" font-size="14" lengthAdjust="spacing" textLength="74.1152" x="194" y="456.167">cost : float</text><text fill="#000000" font-family="sans-serif" font-size="14" lengthAdjust="spacing" textLength="116.3613" x="194" y="472.4639">start_date : date</text><line style="stroke:#181818;stroke-width:0.5;" x1="189" x2="368.5996" y1="479.7656" y2="479.7656"/></g><!--class fact_sales--><g class="entity" data-entity="fact_sales" data-source-line="38" data-uid="ent0006" id="entity_fact_sales"><rect fill="#F1F1F1" height="194.6719" rx="2.5" ry="2.5" style="stroke:#181818;stroke-width:0.5;" width="155.2334" x="451" y="176"/><ellipse cx="490.2411" cy="192" fill="#ADD1B2" rx="11" ry="11" style="stroke:#181818;stroke-width:1;"/><path d="M493.2099,197.6406 Q492.6317,197.9375 491.9911,198.0781 Q491.3505,198.2344 490.6474,198.2344 Q488.1474,198.2344 486.8192,196.5937 Q485.5067,194.9375 485.5067,191.8125 Q485.5067,188.6875 486.8192,187.0312 Q488.1474,185.375 490.6474,185.375 Q491.3505,185.375 491.9911,185.5312 Q492.6474,185.6875 493.2099,185.9844 L493.2099,188.7031 Q492.5849,188.125 491.9911,187.8594 Q491.3974,187.5781 490.7724,187.5781 Q489.4286,187.5781 488.7411,188.6562 Q488.0536,189.7187 488.0536,191.8125 Q488.0536,193.9062 488.7411,194.9844 Q489.4286,196.0469 490.7724,196.0469 Q491.3974,196.0469 491.9911,195.7812 Q492.5849,195.5 493.2099,194.9219 L493.2099,197.6406 Z " fill="#000000"/><text fill="#000000" font-family="sans-serif" font-size="14" lengthAdjust="spacing" textLength="69.3643" x="509.628" y="196.8467">fact_sales</text><line style="stroke:#181818;stroke-width:0.5;" x1="452" x2="605.2334" y1="208" y2="208"/><text fill="#000000" font-family="sans-serif" font-size="14" lengthAdjust="spacing" textLength="131.0859" x="457" y="224.9951">order_number : int</text><text fill="#000000" font-family="sans-serif" font-size="14" lengthAdjust="spacing" textLength="129.8008" x="457" y="241.292">customer_key : int</text><text fill="#000000" font-family="sans-serif" font-size="14" lengthAdjust="spacing" textLength="118.0293" x="457" y="257.5889">product_key : int</text><text fill="#000000" font-family="sans-serif" font-size="14" lengthAdjust="spacing" textLength="121.3311" x="457" y="273.8857">order_date : date</text><text fill="#000000" font-family="sans-serif" font-size="14" lengthAdjust="spacing" textLength="143.2334" x="457" y="290.1826">shipping_date : date</text><text fill="#000000" font-family="sans-serif" font-size="14" lengthAdjust="spacing" textLength="110.127" x="457" y="306.4795">due_date : date</text><text fill="#000000" font-family="sans-serif" font-size="14" lengthAdjust="spacing" textLength="141.7568" x="457" y="322.7764">sales_amount : float</text><text fill="#000000" font-family="sans-serif" font-size="14" lengthAdjust="spacing" textLength="90.2344" x="457" y="339.0732">quantity : int</text><text fill="#000000" font-family="sans-serif" font-size="14" lengthAdjust="spacing" textLength="79.9121" x="457" y="355.3701">price : float</text><line style="stroke:#181818;stroke-width:0.5;" x1="452" x2="605.2334" y1="362.6719" y2="362.6719"/></g><!--link SpacerLeft to dim_customers--><!--link SpacerLeft to fact_sales--><!--link fact_sales to SpacerRight--><!--link dim_products to SpacerRight--><!--link dim_customers to fact_sales--><g class="link" data-entity-1="dim_customers" data-entity-2="fact_sales" data-source-line="57" data-uid="lnk11" id="link_dim_customers_fact_sales"><path codeLine="57" d="M376.5,51 C465.06,51 355.94,236 444.5,236" fill="none" id="dim_customers-to-fact_sales" style="stroke:#181818;stroke-width:1;"/><polygon fill="#181818" points="450.5,236,441.5,232,445.5,236,441.5,240,450.5,236" style="stroke:#181818;stroke-width:1;"/><text fill="#000000" font-family="sans-serif" font-size="13" lengthAdjust="spacing" textLength="8.271" x="383.3498" y="59.4443">1</text><text fill="#000000" font-family="sans-serif" font-size="13" lengthAdjust="spacing" textLength="23.0356" x="420.0801" y="245.6016">0..*</text></g><!--link dim_products to fact_sales--><g class="link" data-entity-1="dim_products" data-entity-2="fact_sales" data-source-line="58" data-uid="lnk12" id="link_dim_products_fact_sales"><path codeLine="58" d="M370.5,305 C413.15,305 401.85,252 444.5,252" fill="none" id="dim_products-to-fact_sales" style="stroke:#181818;stroke-width:1;"/><polygon fill="#181818" points="450.5,252,441.5,248,445.5,252,441.5,256,450.5,252" style="stroke:#181818;stroke-width:1;"/><text fill="#000000" font-family="sans-serif" font-size="13" lengthAdjust="spacing" textLength="8.271" x="377.5379" y="312.5456">1</text><text fill="#000000" font-family="sans-serif" font-size="13" lengthAdjust="spacing" textLength="23.0356" x="420.0801" y="262.9266">0..*</text></g><!--SRC=[VLF1ZjGm3BtdAwpXi3E8NS6rMet4PIKaJkm7L6cIjX5fKX87D5hDbG_W4_aIt7Iw96srkRH-Tfxj5_iEdfmN2WotCWW-AZWQrIBy_Vq7lEvwFB5aevjDaDehWTfPnkxWY_sfWswCWZ1oeMq7t8hU-G37rdamsXApiXts89n5xyo92SD3W6UAL_xhHFtu2CVd3- -UqZd1-GmlroBgMqgy6yPwBLL6bjlf6hinIJtK8WPqWwBgNXZGMUpwkxf01TfY2Mj9Q41FVPKE6uT6-TBPQX-mjdnG9KxPz-16U-mbnmcUFdC2h-Ytti0kadQNac3WNYCtTK2ECPI-JbcPrtVDLHYzar7W8iBDN6cme6i95dnFWLVVfjd5a-QXb9HwxDowjmMTqoyrXTZiXm-SGfIbqPlO6-UCulQcN422MkFuZGEvnqBWLsrQJXK6RjIYZFCoV-lDUEmhLg8pn_f1Gw_7aQhVE6JSlduggUR3D0H5BpyYjwYnB48d3UQWwxIYdzD2qXXUNCIqbe8w_AKbzYUMRU7zVRaZAzz_TLWc53doNIl6Q-LZhA2lgaB7mwS3NJZ3uUF3m_j3bgsCAp9KLQuvlCMH1Vu3]--></g></svg>